<mxfile host="app.diagrams.net" modified="2022-11-18T02:16:52.958Z" agent="5.0 (X11)" etag="H6b8R4QyHTvjlVKMPQ8y" version="20.5.3" type="github">
  <diagram id="GeOgjJa3R1q8z_N-JKQI" name="Page-1">
    <mxGraphModel dx="666" dy="793" grid="1" gridSize="10" guides="1" tooltips="1" connect="1" arrows="1" fold="1" page="1" pageScale="1" pageWidth="850" pageHeight="1100" math="0" shadow="0">
      <root>
        <mxCell id="0" />
        <mxCell id="1" parent="0" />
        <mxCell id="A1KQ_HArBz8SDr3EdsJI-3" value="" style="edgeStyle=orthogonalEdgeStyle;rounded=0;orthogonalLoop=1;jettySize=auto;html=1;" edge="1" parent="1" source="A1KQ_HArBz8SDr3EdsJI-1" target="A1KQ_HArBz8SDr3EdsJI-2">
          <mxGeometry relative="1" as="geometry" />
        </mxCell>
        <mxCell id="A1KQ_HArBz8SDr3EdsJI-1" value="main()" style="rounded=0;whiteSpace=wrap;html=1;" vertex="1" parent="1">
          <mxGeometry x="270" y="240" width="120" height="60" as="geometry" />
        </mxCell>
        <mxCell id="A1KQ_HArBz8SDr3EdsJI-5" value="" style="edgeStyle=orthogonalEdgeStyle;rounded=0;orthogonalLoop=1;jettySize=auto;html=1;" edge="1" parent="1" source="A1KQ_HArBz8SDr3EdsJI-2" target="A1KQ_HArBz8SDr3EdsJI-4">
          <mxGeometry relative="1" as="geometry" />
        </mxCell>
        <mxCell id="A1KQ_HArBz8SDr3EdsJI-2" value="control_thread" style="whiteSpace=wrap;html=1;rounded=0;" vertex="1" parent="1">
          <mxGeometry x="270" y="380" width="120" height="60" as="geometry" />
        </mxCell>
        <mxCell id="A1KQ_HArBz8SDr3EdsJI-7" value="" style="edgeStyle=orthogonalEdgeStyle;rounded=0;orthogonalLoop=1;jettySize=auto;html=1;" edge="1" parent="1" source="A1KQ_HArBz8SDr3EdsJI-4" target="A1KQ_HArBz8SDr3EdsJI-6">
          <mxGeometry relative="1" as="geometry" />
        </mxCell>
        <mxCell id="A1KQ_HArBz8SDr3EdsJI-21" style="edgeStyle=orthogonalEdgeStyle;rounded=0;orthogonalLoop=1;jettySize=auto;html=1;exitX=0.5;exitY=1;exitDx=0;exitDy=0;entryX=0.5;entryY=0;entryDx=0;entryDy=0;" edge="1" parent="1" source="A1KQ_HArBz8SDr3EdsJI-4" target="A1KQ_HArBz8SDr3EdsJI-20">
          <mxGeometry relative="1" as="geometry" />
        </mxCell>
        <mxCell id="A1KQ_HArBz8SDr3EdsJI-4" value="ControlThread()" style="whiteSpace=wrap;html=1;rounded=0;" vertex="1" parent="1">
          <mxGeometry x="470" y="380" width="120" height="60" as="geometry" />
        </mxCell>
        <mxCell id="A1KQ_HArBz8SDr3EdsJI-9" value="" style="edgeStyle=orthogonalEdgeStyle;rounded=0;orthogonalLoop=1;jettySize=auto;html=1;" edge="1" parent="1" source="A1KQ_HArBz8SDr3EdsJI-6" target="A1KQ_HArBz8SDr3EdsJI-8">
          <mxGeometry relative="1" as="geometry" />
        </mxCell>
        <mxCell id="A1KQ_HArBz8SDr3EdsJI-19" style="edgeStyle=orthogonalEdgeStyle;rounded=0;orthogonalLoop=1;jettySize=auto;html=1;entryX=0;entryY=0.5;entryDx=0;entryDy=0;" edge="1" parent="1" source="A1KQ_HArBz8SDr3EdsJI-6" target="A1KQ_HArBz8SDr3EdsJI-18">
          <mxGeometry relative="1" as="geometry" />
        </mxCell>
        <mxCell id="A1KQ_HArBz8SDr3EdsJI-6" value="configuration_" style="whiteSpace=wrap;html=1;rounded=0;" vertex="1" parent="1">
          <mxGeometry x="670" y="380" width="120" height="60" as="geometry" />
        </mxCell>
        <mxCell id="A1KQ_HArBz8SDr3EdsJI-8" value="FileConfiguration()" style="whiteSpace=wrap;html=1;rounded=0;" vertex="1" parent="1">
          <mxGeometry x="870" y="380" width="120" height="60" as="geometry" />
        </mxCell>
        <mxCell id="A1KQ_HArBz8SDr3EdsJI-10" value="aux" style="whiteSpace=wrap;html=1;rounded=0;" vertex="1" parent="1">
          <mxGeometry x="660" y="480" width="120" height="60" as="geometry" />
        </mxCell>
        <mxCell id="A1KQ_HArBz8SDr3EdsJI-14" value="" style="endArrow=classic;html=1;rounded=0;exitX=1;exitY=0.5;exitDx=0;exitDy=0;entryX=0.5;entryY=0;entryDx=0;entryDy=0;" edge="1" parent="1" source="A1KQ_HArBz8SDr3EdsJI-4" target="A1KQ_HArBz8SDr3EdsJI-10">
          <mxGeometry width="50" height="50" relative="1" as="geometry">
            <mxPoint x="670" y="470" as="sourcePoint" />
            <mxPoint x="720" y="420" as="targetPoint" />
          </mxGeometry>
        </mxCell>
        <mxCell id="A1KQ_HArBz8SDr3EdsJI-17" value="" style="endArrow=none;dashed=1;html=1;rounded=0;entryX=0.5;entryY=1;entryDx=0;entryDy=0;exitX=0.5;exitY=0;exitDx=0;exitDy=0;" edge="1" parent="1" source="A1KQ_HArBz8SDr3EdsJI-10" target="A1KQ_HArBz8SDr3EdsJI-6">
          <mxGeometry width="50" height="50" relative="1" as="geometry">
            <mxPoint x="670" y="470" as="sourcePoint" />
            <mxPoint x="720" y="420" as="targetPoint" />
          </mxGeometry>
        </mxCell>
        <mxCell id="A1KQ_HArBz8SDr3EdsJI-18" value="check configuration" style="whiteSpace=wrap;html=1;rounded=0;" vertex="1" parent="1">
          <mxGeometry x="870" y="470" width="120" height="60" as="geometry" />
        </mxCell>
        <mxCell id="A1KQ_HArBz8SDr3EdsJI-20" value="ControlThread::init()" style="whiteSpace=wrap;html=1;rounded=0;" vertex="1" parent="1">
          <mxGeometry x="470" y="560" width="120" height="60" as="geometry" />
        </mxCell>
        <mxCell id="A1KQ_HArBz8SDr3EdsJI-22" value="control_queue" style="whiteSpace=wrap;html=1;rounded=0;" vertex="1" parent="1">
          <mxGeometry x="660" y="560" width="120" height="60" as="geometry" />
        </mxCell>
        <mxCell id="A1KQ_HArBz8SDr3EdsJI-23" value="" style="endArrow=classic;html=1;rounded=0;exitX=1;exitY=0.5;exitDx=0;exitDy=0;entryX=0;entryY=0.5;entryDx=0;entryDy=0;" edge="1" parent="1" source="A1KQ_HArBz8SDr3EdsJI-20" target="A1KQ_HArBz8SDr3EdsJI-22">
          <mxGeometry width="50" height="50" relative="1" as="geometry">
            <mxPoint x="630" y="560" as="sourcePoint" />
            <mxPoint x="680" y="510" as="targetPoint" />
          </mxGeometry>
        </mxCell>
      </root>
    </mxGraphModel>
  </diagram>
</mxfile>
